<?xml version="1.0" encoding="utf-8"?>
<!-- Generator: Adobe Illustrator 25.4.1, SVG Export Plug-In . SVG Version: 6.00 Build 0)  -->
<svg version="1.1" id="Livello_1" xmlns="http://www.w3.org/2000/svg" xmlns:xlink="http://www.w3.org/1999/xlink" x="0px" y="0px"
	 viewBox="0 0 21 27" style="enable-background:new 0 0 21 27;" xml:space="preserve">
<style type="text/css">
	.st0{fill:#FFFFFF;}
</style>
<path class="st0" d="M17,0H4C1.8,0,0,1.8,0,4v3v16v3c0,0.6,0.4,1,1,1h13.9c1.6,0,2.9-1.4,3.1-3.1c1.7-0.4,3-2,3-3.8V4
	C21,1.8,19.2,0,17,0z M15.1,2v5.1l-1-0.8C13.8,6,13.3,6,13,6.3l-1,0.8V2H15.1z M14.9,25H2v-1h13.9C15.8,24.6,15.4,25,14.9,25z
	 M19,20c0,1.1-0.9,2-2,2H2V7V4c0-1.1,0.9-2,2-2h6.1v7c0,0.4,0.2,0.7,0.5,0.8c0.3,0.2,0.7,0.1,1-0.1l1.9-1.5l1.9,1.5
	c0.2,0.1,0.4,0.2,0.6,0.2c0.1,0,0.3,0,0.4-0.1c0.3-0.2,0.5-0.5,0.5-0.8V2H17c1.1,0,2,0.9,2,2V20z"/>
</svg>
