<?xml version="1.0" encoding="utf-8"?>
<!-- Generator: Adobe Illustrator 25.4.1, SVG Export Plug-In . SVG Version: 6.00 Build 0)  -->
<svg version="1.1" id="Livello_1" xmlns="http://www.w3.org/2000/svg" xmlns:xlink="http://www.w3.org/1999/xlink" x="0px" y="0px"
	 viewBox="0 0 24 24" style="enable-background:new 0 0 24 24;" xml:space="preserve">
<style type="text/css">
	.st0{fill:#6A6B6C;}
</style>
<path class="st0" d="M17.3,0.1c1.2,0.1,2.1,0.2,2.8,0.5c0.8,0.3,1.4,0.7,2,1.3c0.6,0.6,1,1.2,1.3,2c0.3,0.8,0.5,1.6,0.5,2.8
	C24,8.2,24,8.7,24,12c0,3.3,0,3.8-0.1,5.3c-0.1,1.2-0.2,2.1-0.5,2.8c-0.3,0.8-0.7,1.4-1.3,2c-0.6,0.6-1.2,1-2,1.3
	c-0.8,0.3-1.6,0.5-2.8,0.5C15.8,24,15.3,24,12,24s-3.8,0-5.3-0.1c-1.2-0.1-2.1-0.2-2.8-0.5c-0.8-0.3-1.4-0.7-2-1.3
	c-0.6-0.6-1-1.2-1.3-2c-0.3-0.8-0.5-1.6-0.5-2.8C0,15.8,0,15.3,0,12c0-3.3,0-3.8,0.1-5.3c0.1-1.2,0.2-2.1,0.5-2.8
	c0.3-0.8,0.7-1.4,1.3-2c0.6-0.6,1.2-1,2-1.3c0.8-0.3,1.6-0.5,2.8-0.5C8.2,0,8.7,0,12,0C15.3,0,15.8,0,17.3,0.1z M12,2.7
	c-3.2,0-3.7,0-5.2,0.1c-0.9,0-1.5,0.2-2,0.4c-0.4,0.2-0.7,0.3-1,0.7c-0.3,0.3-0.5,0.6-0.7,1c-0.2,0.5-0.3,1.1-0.4,2
	c-0.1,1.5-0.1,2-0.1,5.2c0,3.2,0,3.7,0.1,5.2c0,0.9,0.2,1.5,0.4,2c0.2,0.4,0.3,0.7,0.7,1c0.3,0.3,0.6,0.5,1,0.7
	c0.5,0.2,1.1,0.3,2,0.4c1.5,0.1,2,0.1,5.2,0.1s3.7,0,5.2-0.1c0.9,0,1.5-0.2,2-0.4c0.4-0.2,0.7-0.3,1-0.7c0.3-0.3,0.5-0.6,0.7-1
	c0.2-0.5,0.3-1.1,0.4-2c0.1-1.5,0.1-2,0.1-5.2c0-3.2,0-3.7-0.1-5.2c0-0.9-0.2-1.5-0.4-2c-0.2-0.4-0.3-0.7-0.7-1
	c-0.3-0.3-0.6-0.5-1-0.7c-0.5-0.2-1.1-0.3-2-0.4C15.7,2.7,15.2,2.7,12,2.7z M12,18.2c-3.4,0-6.2-2.8-6.2-6.2S8.6,5.8,12,5.8
	s6.2,2.8,6.2,6.2S15.4,18.2,12,18.2z M12,15.6c2,0,3.6-1.6,3.6-3.6S14,8.4,12,8.4S8.4,10,8.4,12S10,15.6,12,15.6z M18.2,7.1
	c-0.7,0-1.3-0.6-1.3-1.3s0.6-1.3,1.3-1.3s1.3,0.6,1.3,1.3S19,7.1,18.2,7.1z"/>
</svg>
