<?xml version="1.0" encoding="utf-8"?>
<!-- Generator: Adobe Illustrator 25.4.1, SVG Export Plug-In . SVG Version: 6.00 Build 0)  -->
<svg version="1.1" id="Livello_1" xmlns="http://www.w3.org/2000/svg" xmlns:xlink="http://www.w3.org/1999/xlink" x="0px" y="0px"
	 viewBox="0 0 23.8 16.6" style="enable-background:new 0 0 23.8 16.6;" xml:space="preserve">
<style type="text/css">
	.st0{fill:#6A6B6C;}
</style>
<g>
	<path class="st0" d="M1.2,0l9.4,7.6C11,7.9,11.5,8,12,8s1.1-0.1,1.4-0.4L22.8,0H1.2L1.2,0z"/>
	<path class="st0" d="M22.7,2.5l-9.4,7.2c-0.4,0.3-0.8,0.4-1.3,0.4s-0.9-0.1-1.3-0.4L1.3,2.5C0.6,2,0,2.3,0,3.1V15
		c0,0.9,0.7,1.6,1.6,1.6h20.6c0.9,0,1.6-0.7,1.6-1.6V3.1C24,2.2,23.4,2,22.7,2.5L22.7,2.5z"/>
</g>
</svg>
