<?xml version="1.0" encoding="utf-8"?>
<!-- Generator: Adobe Illustrator 25.4.1, SVG Export Plug-In . SVG Version: 6.00 Build 0)  -->
<svg version="1.1" id="Livello_1" xmlns="http://www.w3.org/2000/svg" xmlns:xlink="http://www.w3.org/1999/xlink" x="0px" y="0px"
	 viewBox="0 0 63.8 51.9" style="enable-background:new 0 0 63.8 51.9;" xml:space="preserve">
<style type="text/css">
	.st0{fill:none;}
	.st1{fill:#6A6B6C;}
</style>
<path class="st0" d="M-5-9h72v72H-5V-9z"/>
<path class="st1" d="M63.8,6.1c-2.3,1-4.9,1.7-7.5,2.1C59,6.6,61.1,4,62,1c-2.5,1.5-5.3,2.6-8.3,3.2C51.3,1.6,47.9,0,44.2,0
	C37,0,31.1,5.9,31.1,13.1c0,1,0.1,2,0.3,3c-10.9-0.5-20.5-5.8-27-13.7C3.3,4.3,2.7,6.6,2.7,9c0,4.5,2.3,8.6,5.8,10.9
	c-2.1-0.1-4.2-0.7-5.9-1.6c0,0.1,0,0.1,0,0.2c0,6.3,4.5,11.6,10.5,12.8c-1.1,0.3-2.3,0.5-3.4,0.5c-0.8,0-1.7-0.1-2.5-0.2
	c1.7,5.2,6.5,9,12.2,9.1c-4.5,3.5-10.1,5.6-16.3,5.6C2.1,46.2,1,46.1,0,46c5.8,3.7,12.7,5.9,20.1,5.9c24.1,0,37.2-20,37.2-37.2
	c0-0.6,0-1.1,0-1.7C59.8,11.1,62.1,8.8,63.8,6.1L63.8,6.1z"/>
</svg>
