<?xml version="1.0" encoding="utf-8"?>
<!-- Generator: Adobe Illustrator 25.4.1, SVG Export Plug-In . SVG Version: 6.00 Build 0)  -->
<svg version="1.1" id="Livello_1" xmlns="http://www.w3.org/2000/svg" xmlns:xlink="http://www.w3.org/1999/xlink" x="0px" y="0px"
	 viewBox="0 0 85 49" style="enable-background:new 0 0 85 49;" xml:space="preserve">
<style type="text/css">
	.st0{display:none;enable-background:new    ;}
	.st1{display:inline;}
	.st2{fill-rule:evenodd;clip-rule:evenodd;}
	.st3{enable-background:new    ;}
	.st4{fill-rule:evenodd;clip-rule:evenodd;fill:#F6F7F1;}
</style>
<g class="st0">
	<g class="st1">
		<g>
			<polygon class="st2" points="88,42.1 52.4,6.9 52.4,6.9 42.5,-3 32.5,6.9 32.5,6.9 -3,42.1 6.9,52 42.5,16.8 78,52 			"/>
		</g>
	</g>
</g>
<g class="st3">
	<g>
		<g>
			<path class="st4" d="M82.9,37.1L47.5,2c-2.7-2.7-7.2-2.7-9.9,0L2.1,37.1c-2.7,2.7-2.7,7.1,0,9.8s7.2,2.7,9.9,0l30.5-30.2L73,47
				c2.7,2.7,7.2,2.7,9.9,0C85.7,44.3,85.7,39.9,82.9,37.1z"/>
		</g>
	</g>
</g>
<g class="st0">
	<g class="st1">
		<g>
			<polygon class="st2" points="88,45.5 42.5,0 -3,45.5 0.5,49 42.5,7.1 84.4,49 			"/>
		</g>
	</g>
</g>
<g class="st0">
	<g class="st1">
		<g>
			<path class="st2" d="M86.3,44.7l-41.5-42c-1-1-2.5-1-3.5,0l-41.6,42c-1,1-1,2.6,0,3.6s2.5,1,3.5,0L43,8.1l39.7,40.2
				c1,1,2.5,1,3.5,0C87.2,47.3,87.2,45.7,86.3,44.7z"/>
		</g>
	</g>
</g>
</svg>
