<?xml version="1.0" encoding="utf-8"?>
<!-- Generator: Adobe Illustrator 25.4.1, SVG Export Plug-In . SVG Version: 6.00 Build 0)  -->
<svg version="1.1" id="Livello_1" xmlns="http://www.w3.org/2000/svg" xmlns:xlink="http://www.w3.org/1999/xlink" x="0px" y="0px"
	 viewBox="0 0 32 32.1" style="enable-background:new 0 0 32 32.1;" xml:space="preserve">
<g>
	<path d="M29.5,26.2c3.2-3.3,3.3-8.6,0.2-12c-0.4-0.4-1-0.5-1.4-0.1c-0.4,0.4-0.5,1-0.1,1.4c2.4,2.7,2.3,6.8-0.2,9.4
		c-0.4,0.4-0.8,0.8-1.3,1.2c-0.4,0.3-0.9,0.7-0.1,3.3c-1.9-0.7-4.1-1.4-4.9-1.2c-0.6,0.1-1.1,0.1-1.7,0.1c-3.1,0.1-6.1-1.2-8.2-3.5
		c-0.4-0.4-1-0.5-1.4-0.1s-0.5,1-0.1,1.4l0,0c2.5,2.7,6.1,4.3,9.8,4.2c0.6,0,1.3,0,1.9-0.1l0,0c2,0.5,4,1.1,5.9,1.9
		c0.1,0,0.2,0.1,0.4,0.1c0.3,0,0.5-0.1,0.7-0.3c0.3-0.3,0.4-0.7,0.2-1.1c-0.4-1-0.8-2.1-1-3.2C28.7,27.1,29.1,26.7,29.5,26.2z"/>
	<path d="M10.9,21.9C11.6,22,12.3,22,13,22c7.2,0,13-4.9,13-11S20.2,0,13,0S0,4.9,0,11c0,2.5,1,4.9,2.7,6.7c0.5,0.5,0.9,1,1.5,1.4
		c-0.2,1.2-0.6,2.4-1.1,3.6C2.9,23,3,23.4,3.3,23.7C3.5,23.9,3.7,24,4,24c0.1,0,0.2,0,0.4-0.1C6.5,23.1,8.6,22.4,10.9,21.9
		L10.9,21.9z M5.7,21.3c0.9-2.9,0.3-3.4-0.1-3.7c-0.5-0.4-1-0.8-1.5-1.3C2.8,14.9,2,13,2,11c0-5,4.9-9,11-9s11,4,11,9s-4.9,9-11,9
		c-0.6,0-1.2,0-1.9-0.1C10.3,19.8,7.8,20.5,5.7,21.3z"/>
</g>
</svg>
