<?xml version="1.0" encoding="utf-8"?>
<!-- Generator: Adobe Illustrator 25.4.1, SVG Export Plug-In . SVG Version: 6.00 Build 0)  -->
<svg version="1.1" id="Livello_1" xmlns="http://www.w3.org/2000/svg" xmlns:xlink="http://www.w3.org/1999/xlink" x="0px" y="0px"
	 viewBox="0 0 89.8 89.8" style="enable-background:new 0 0 89.8 89.8;" xml:space="preserve">
<style type="text/css">
	.st0{fill:#FFFFFF;}
</style>
<path class="st0" d="M44.9,0C20.1,0,0,20.1,0,44.9s20.1,44.9,44.9,44.9c24.8,0,44.9-20.1,44.9-44.9S69.7,0,44.9,0z M46.8,64.8
	l-4.1,4.9c-2.4,2.9-5.8,4.8-9.5,5.4c-0.5,0.1-1,0.1-1.4,0.2c-4.1,0.4-8.2-1-11.3-3.7c-6.4-5.6-7.2-15.2-1.8-21.7l9.6-11.5
	c0.5-0.6,1-1.2,1.6-1.7c6.4-5.7,16.2-5.1,21.9,1.4c1.3,1.4,1.3,3.6,0.1,5l0,0.1c-0.7,0.9-1.8,1.4-2.9,1.4c-1.1,0-2.2-0.5-3-1.3
	c-0.3-0.3-0.5-0.6-0.8-0.8c-2.6-2.1-6.2-2.4-9.1-0.6c-0.7,0.4-1.3,0.9-1.8,1.5l-0.1,0.1L24.8,55c0,0.1-0.1,0.1-0.1,0.2
	c-2.6,3.4-2.1,8.2,1.3,10.9c3.4,2.5,8.2,2,10.9-1.3l4.1-4.9c1.4-1.6,3.8-1.9,5.5-0.5C48,60.7,48.2,63.2,46.8,64.8z M70.9,40
	l-9.5,11.3c-1.8,2.2-4.2,3.8-6.9,4.7c-0.8,0.3-1.5,0.5-2.3,0.6c-5.2,0.9-10.4-0.9-14-4.7c-1.5-1.6-1.4-4,0.2-5.5
	c1.6-1.5,4-1.4,5.5,0.2c2.5,2.7,6.6,3.3,9.8,1.3c0.7-0.4,1.3-0.9,1.8-1.5l0.1-0.1L64.9,35c2.7-3.2,2.5-8-0.6-10.9
	c-0.1,0-0.1-0.1-0.2-0.1c-3.3-2.8-8.2-2.3-10.9,1l-4.6,5.5c-1.4,1.6-3.8,1.9-5.5,0.5s-1.9-3.8-0.5-5.5l4.6-5.5
	c5.5-6.5,15.1-7.4,21.7-2.1l0,0c3.2,2.6,5.2,6.4,5.6,10.5C74.9,32.5,73.6,36.7,70.9,40z"/>
</svg>
