<?xml version="1.0" encoding="utf-8"?>
<!-- Generator: Adobe Illustrator 25.4.1, SVG Export Plug-In . SVG Version: 6.00 Build 0)  -->
<svg version="1.1" id="Livello_1" xmlns="http://www.w3.org/2000/svg" xmlns:xlink="http://www.w3.org/1999/xlink" x="0px" y="0px"
	 viewBox="0 0 69 94.9" style="enable-background:new 0 0 69 94.9;" xml:space="preserve">
<style type="text/css">
	.st0{fill:#6A6B6C;}
</style>
<g id="Livello_2_00000108991142563691302690000003766577475478224011_">
</g>
<g id="Livello_1_00000095331897200620699480000000661625552228551049_">
	<path class="st0" d="M67.4,79.9l-9.3-11.8c-3.3-4.2-9.5-4.9-13.6-1.5l-4.7,3.9c-1,0.8-2.6,0.7-3.5-0.2c-8.8-9.8-15-21.3-18.4-34
		c-0.3-1.3,0.4-2.7,1.7-3.1l5.7-1.9c5.1-1.7,7.8-7.2,6.1-12.3l-5-14c-1.5-4.3-6.5-6.2-10.5-4.1c-15.1,8.2-24.3,26-5.1,61.2
		s39.2,37,54.3,28.8C69.1,88.8,70.2,83.5,67.4,79.9z"/>
</g>
</svg>
