<?xml version="1.0" encoding="utf-8"?>
<!-- Generator: Adobe Illustrator 25.4.1, SVG Export Plug-In . SVG Version: 6.00 Build 0)  -->
<svg version="1.1" id="Livello_1" xmlns="http://www.w3.org/2000/svg" xmlns:xlink="http://www.w3.org/1999/xlink" x="0px" y="0px"
	 viewBox="0 0 90 90" style="enable-background:new 0 0 90 90;" xml:space="preserve">
<style type="text/css">
	.st0{fill:#AFAFAF;}
</style>
<path class="st0" d="M82.5,90c1.9,0,3.8-0.7,5.3-2.2c2.9-2.9,2.9-7.7,0-10.6L69.5,58.9c9.8-14.7,8.2-34.8-4.8-47.8
	c-14.8-14.8-38.8-14.8-53.6,0s-14.8,38.8,0,53.6c7.4,7.4,17.1,11.1,26.8,11.1c7.3,0,14.6-2.1,21-6.3l18.3,18.3
	C78.6,89.3,80.6,90,82.5,90z M20.4,55.4c-9.6-9.6-9.6-25.3,0-35c4.8-4.8,11.2-7.2,17.5-7.2s12.7,2.4,17.5,7.2c9.6,9.6,9.6,25.3,0,35
	C45.8,65,30.1,65,20.4,55.4z"/>
</svg>
